# xmcd
#
# Track frame offsets:
#	150
#	11999
#	26021
#	37358
#	50689
#	74137
#	85284
#	95816
#	105592
#	124349
#	137435
#	150243
#
# Disc length: 2344 seconds
#
# Revision: 0
# Processed by: cddbd v1.5.1PL2 Copyright (c) Steve Scherf et al.
# Submitted via: dBpowerAMP V4.0
#
DISCID=ad09260c
DTITLE=Mustangs - Rocking Horse
DYEAR=2004
DGENRE=Blues
TTITLE0=Rocking Horse
TTITLE1=Give Me Some Time
TTITLE2=Stuck With The Blues
TTITLE3=My Kind Of Woman
TTITLE4=Bitter Taste
TTITLE5=Empty Bottle
TTITLE6=Ring A Ding
TTITLE7=Baby You're In Charge
TTITLE8=River Man
TTITLE9=Too Much Too Soon
TTITLE10=She Came To Call
TTITLE11=This Town
EXTD=
EXTT0=
EXTT1=
EXTT2=
EXTT3=
EXTT4=
EXTT5=
EXTT6=
EXTT7=
EXTT8=
EXTT9=
EXTT10=
EXTT11=
PLAYORDER=
